#N canvas 963 23 951 1016 10;
#X declare -path saf;
#X declare -path ./../Sources;
#X obj 12 5 declare -path saf;
#X obj 70 26 pdlua;
#X obj 121 5 declare -path ./../Sources;
#X msg 151 179 frames \$1;
#X obj 151 159 nbx 5 16 -1e+37 1e+37 0 0 empty empty empty 0 -9 0 10 #fcfcfc #000000 #000000 0 256;
#X msg 27 179 width \$1;
#X obj 27 159 nbx 5 16 3 10 0 1 empty empty empty 0 -9 0 10 #fcfcfc #000000 #000000 6 256;
#X msg 216 179 reload;
#X obj 15 137 snake~ in 6, f 47;
#X obj 15 66 osc~ 440;
#X obj 15 88 *~ 0.2;
#X obj 71 66 osc~ 440;
#X obj 71 88 *~ 0.4;
#X obj 127 66 osc~ 440;
#X obj 127 88 *~ 0.3;
#X obj 182 66 osc~ 440;
#X obj 182 88 *~ 0.6;
#X obj 86 159 nbx 5 16 25 200 0 1 empty empty empty 0 -9 0 10 #fcfcfc #000000 #000000 120 256;
#X msg 86 179 height \$1;
#X obj 15 270 mc.meter~ -width 6 -frames 20 -inchs 6;
#X obj 294 66 osc~ 0.04;
#X obj 294 88 *~ 1.2;
#X obj 238 88 *~ 1.1;
#X obj 238 66 osc~ 220;
#X obj 182 243 mc.meter~;
#X obj 276 232 mc.meter~;
#X connect 3 0 19 0;
#X connect 4 0 3 0;
#X connect 5 0 19 0;
#X connect 6 0 5 0;
#X connect 7 0 19 0;
#X connect 8 0 19 0;
#X connect 8 0 24 0;
#X connect 9 0 10 0;
#X connect 10 0 8 0;
#X connect 11 0 12 0;
#X connect 12 0 8 1;
#X connect 13 0 14 0;
#X connect 14 0 8 2;
#X connect 15 0 16 0;
#X connect 16 0 8 3;
#X connect 17 0 18 0;
#X connect 18 0 19 0;
#X connect 20 0 21 0;
#X connect 21 0 8 5;
#X connect 22 0 8 4;
#X connect 23 0 22 0;
