#N canvas 963 23 951 489 10;
#X declare -path saf;
#X declare -lib pdlua;
#X declare -path ../Sources;
#X obj 12 5 declare -path saf;
#X obj 13 27 declare -lib pdlua;
#X obj 128 6 declare -path ../Sources;
#X obj 2 159 saf.roompanning;
#X obj 69 125 r room;
#X obj 215 67 s room;
#X obj 232 234 s room;
#X obj 215 26 loadbang;
#X obj 230 108 loadbang;
#X obj 233 257 loadbang;
#X msg 233 277 set roomdim 5 5 5;
#X msg 215 45 set roomdim 5 5 5 40;
#X msg 275 199 set loudspeakerpos 4 4.7 4.5 20;
#X msg 232 139 set loudspeakerpos 1 0.1 0.1 20;
#X msg 243 159 set loudspeakerpos 2 0.1 4.5 20;
#X msg 262 179 set loudspeakerpos 3 4.7 0.1 20;
#X obj 275 234 s dec;
#N canvas 963 550 951 489 sound 0;
#X obj 13 49 tabplay~ maracatu;
#X obj 112 71 bng 18 250 50 0 empty empty empty 0 -9 0 10 #fcfcfc #000000 #000000;
#X obj 13 26 bng 18 250 50 0 empty empty empty 0 -9 0 10 #fcfcfc #000000 #000000;
#X obj 45 125 osc~ 200;
#N canvas 963 550 951 489 line 0;
#X obj 37 37 inlet~;
#X obj 37 109 *~;
#X obj 37 209 outlet~;
#X obj 99 81 line~;
#X obj 169 139 snapshot~;
#X obj 169 161 nbx 5 16 -1e+37 1e+37 0 0 empty empty empty 0 -9 0 10 #fcfcfc #000000 #000000 0 256;
#X obj 170 214 sel 1 0, f 28;
#X obj 37 131 *~ 0.1;
#X obj 353 226 tgl 18 0 empty empty empty 0 -9 0 10 #fcfcfc #000000 #000000 0 1;
#X obj 353 249 sel 1 0, f 27;
#X obj 353 309 mtof;
#X obj 432 311 mtof;
#X obj 433 183 loadbang;
#X msg 433 205 0;
#X obj 353 355 s r-fund;
#X obj 432 357 s r-fund;
#X obj 360 184 nbx 5 16 -1e+37 1e+37 0 0 empty empty empty 0 -9 0 10 #fcfcfc #000000 #000000 0 256;
#X obj 353 203 sel 0, f 9;
#X obj 353 164 % 8;
#X obj 280 24 r play;
#X obj 249 97 metro 50;
#X obj 257 49 loadbang;
#X obj 257 72 tgl 18 0 empty empty empty 0 -9 0 10 #fcfcfc #000000 #000000 0 1;
#X obj 189 268 bng 18 250 50 0 empty empty empty 0 -9 0 10 #fcfcfc #000000 #000000;
#X msg 116 46 0 \, 1 88;
#X msg 170 309 1 \, 0 88;
#X obj 169 182 change;
#X obj 355 114 int;
#X obj 355 137 + 1;
#X obj 170 240 delay 705 1 msec;
#X obj 353 272 55;
#X obj 432 274 50;
#X connect 0 0 1 0;
#X connect 1 0 7 0;
#X connect 3 0 1 1;
#X connect 3 0 4 0;
#X connect 4 0 5 0;
#X connect 5 0 26 0;
#X connect 6 0 29 0;
#X connect 7 0 2 0;
#X connect 8 0 9 0;
#X connect 9 0 30 0;
#X connect 9 1 31 0;
#X connect 10 0 14 0;
#X connect 11 0 15 0;
#X connect 12 0 13 0;
#X connect 13 0 9 0;
#X connect 17 0 8 0;
#X connect 18 0 16 0;
#X connect 18 0 17 0;
#X connect 19 0 24 0;
#X connect 19 0 27 0;
#X connect 20 0 4 0;
#X connect 21 0 22 0;
#X connect 22 0 20 0;
#X connect 24 0 3 0;
#X connect 25 0 3 0;
#X connect 26 0 6 0;
#X connect 27 0 28 0;
#X connect 28 0 18 0;
#X connect 28 0 27 1;
#X connect 29 0 25 0;
#X connect 29 0 23 0;
#X connect 30 0 10 0;
#X connect 31 0 11 0;
#X restore 45 156 pd line;
#X obj 45 98 nbx 5 16 -1e+37 1e+37 0 0 empty r-fund empty 0 -9 0 10 #fcfcfc #000000 #000000 0 256;
#X obj 112 94 s play;
#N canvas 1282 23 632 1016 line 0;
#X obj 595 432 outlet~;
#X obj 99 81 line~;
#X obj 169 139 snapshot~;
#X obj 169 161 nbx 5 16 -1e+37 1e+37 0 0 empty empty empty 0 -9 0 10 #fcfcfc #000000 #000000 0 256;
#X obj 170 214 sel 1 0, f 53;
#X obj 99 35 r play;
#X obj 249 97 metro 50;
#X obj 257 49 loadbang;
#X obj 257 72 tgl 18 0 empty empty empty 0 -9 0 10 #fcfcfc #000000 #000000 0 1;
#X obj 189 268 bng 18 250 50 0 empty empty empty 0 -9 0 10 #fcfcfc #000000 #000000;
#X msg 99 57 0 \, 1 88;
#X msg 170 309 1 \, 0 88;
#X obj 169 182 change;
#X obj 170 240 delay 705 1 msec;
#X obj 595 295 noise~;
#X obj 327 239 bng 18 250 50 0 empty empty empty 0 -9 0 10 #fcfcfc #000000 #000000;
#X obj 327 284 bng 18 250 50 0 empty empty empty 0 -9 0 10 #fcfcfc #000000 #000000;
#X obj 327 329 line~;
#X obj 595 322 *~;
#X obj 327 351 snapshot~;
#X obj 327 373 nbx 5 16 -1e+37 1e+37 0 0 empty empty empty 0 -9 0 10 #fcfcfc #000000 #000000 0 256;
#X obj 327 394 change;
#X obj 261 325 metro 50;
#X obj 269 277 loadbang;
#X obj 269 300 tgl 18 0 empty empty empty 0 -9 0 10 #fcfcfc #000000 #000000 0 1;
#X obj 327 416 sel 1;
#X msg 327 307 0 \, 1 33;
#X msg 361 442 1 \, 0 33;
#X obj 595 344 *~ 0.5;
#X obj 449 353 line~;
#X obj 449 375 snapshot~;
#X obj 449 397 nbx 5 16 -1e+37 1e+37 0 0 empty empty empty 0 -9 0 10 #fcfcfc #000000 #000000 0 256;
#X obj 449 418 change;
#X obj 449 440 sel 1;
#X msg 483 466 1 \, 0 33;
#X msg 399 321 0 \, 1 33;
#X obj 569 134 expr random(1 \, 2);
#X obj 548 93 bng 18 250 50 0 empty empty empty 0 -9 0 10 #fcfcfc #000000 #000000;
#X obj 569 156 nbx 5 16 -1e+37 1e+37 0 0 empty empty empty 0 -9 0 10 #fcfcfc #000000 #000000 0 256;
#X obj 451 247 expr if(random(1 \, 3) == 1 \, 176 \, 353);
#X obj 473 269 expr if(random(1 \, 3) == 1 \, 176 \, 353);
#X obj 327 262 del 176 1 msec;
#X obj 381 290 del 176 1 msec;
#X obj 595 366 hip~ 5000;
#X connect 1 0 2 0;
#X connect 2 0 3 0;
#X connect 3 0 12 0;
#X connect 4 0 13 0;
#X connect 4 1 15 0;
#X connect 4 1 39 0;
#X connect 4 1 40 0;
#X connect 5 0 10 0;
#X connect 6 0 2 0;
#X connect 7 0 8 0;
#X connect 8 0 6 0;
#X connect 10 0 1 0;
#X connect 11 0 1 0;
#X connect 12 0 4 0;
#X connect 13 0 11 0;
#X connect 13 0 9 0;
#X connect 14 0 18 0;
#X connect 15 0 41 0;
#X connect 16 0 26 0;
#X connect 17 0 19 0;
#X connect 17 0 18 1;
#X connect 18 0 28 0;
#X connect 19 0 20 0;
#X connect 20 0 21 0;
#X connect 21 0 25 0;
#X connect 22 0 19 0;
#X connect 22 0 30 0;
#X connect 23 0 24 0;
#X connect 24 0 22 0;
#X connect 25 0 27 0;
#X connect 26 0 17 0;
#X connect 27 0 17 0;
#X connect 28 0 43 0;
#X connect 29 0 30 0;
#X connect 29 0 18 1;
#X connect 30 0 31 0;
#X connect 31 0 32 0;
#X connect 32 0 33 0;
#X connect 33 0 34 0;
#X connect 34 0 29 0;
#X connect 35 0 29 0;
#X connect 36 0 38 0;
#X connect 37 0 36 0;
#X connect 39 0 42 1;
#X connect 40 0 41 1;
#X connect 41 0 16 0;
#X connect 41 0 42 0;
#X connect 42 0 35 0;
#X connect 43 0 0 0;
#X restore 93 157 pd line;
#X obj 13 185 snake~ in 3;
#X obj 13 7 loadbang;
#X obj 13 207 outlet~;
#X connect 0 0 8 0;
#X connect 0 1 1 0;
#X connect 1 0 0 0;
#X connect 1 0 6 0;
#X connect 2 0 0 0;
#X connect 3 0 4 0;
#X connect 4 0 8 1;
#X connect 5 0 3 0;
#X connect 7 0 8 2;
#X connect 8 0 10 0;
#X connect 9 0 2 0;
#X restore 85 379 pd sound;
#X obj 281 6 maracatu;
#N canvas 963 550 951 489 random-walk 0;
#X obj 11 164 outlet;
#X obj 11 11 loadbang;
#X msg 11 65 set source 1 \$1 \$2 0;
#N canvas 963 550 951 489 (subpatch) 0;
#X obj 11 51 tgl 28 0 empty empty empty 0 -9 0 10 #fcfcfc #000000 #000000 0 1;
#X obj 11 24 inlet;
#X obj 339 280 nbx 5 16 -1e+37 1e+37 0 0 empty empty empty 0 -9 0 10 #fcfcfc #000000 #000000 0 256;
#X obj 98 278 nbx 5 16 -1e+37 1e+37 0 0 empty empty empty 0 -9 0 10 #fcfcfc #000000 #000000 0 256;
#X obj 98 330 * 0.01;
#X obj 274 357 * 0.01;
#X obj 98 374 pack f f;
#X obj 98 397 outlet;
#X obj 98 147 line, f 8;
#X obj 98 207 spigot;
#X obj 98 23 sel 1;
#X obj 98 46 expr random(255 \, 500);
#X obj 98 100 t f f, f 24;
#X obj 179 177 sel, f 7;
#X obj 179 200 expr random(0 \, 500);
#X msg 98 122 0 \, \$1 15000;
#X msg 177 242 \$1 15000;
#X obj 339 146 line, f 8;
#X obj 339 206 spigot;
#X obj 339 22 sel 1;
#X obj 339 45 expr random(255 \, 500);
#X obj 339 99 t f f, f 24;
#X obj 420 176 sel, f 7;
#X obj 420 199 expr random(0 \, 500);
#X msg 339 121 0 \, \$1 15000;
#X msg 420 263 \$1 15000;
#X obj 420 233 + 1;
#X obj 179 223 + 1;
#X obj 339 301 change;
#X obj 339 347 line;
#X obj 339 370 sel 100;
#X obj 140 302 change;
#X msg 339 324 0 \, 100 500;
#X connect 0 0 9 1;
#X connect 0 0 10 0;
#X connect 0 0 19 0;
#X connect 0 0 18 1;
#X connect 1 0 0 0;
#X connect 2 0 5 0;
#X connect 2 0 28 0;
#X connect 3 0 4 0;
#X connect 3 0 31 0;
#X connect 4 0 6 0;
#X connect 5 0 6 1;
#X connect 6 0 7 0;
#X connect 8 0 9 0;
#X connect 8 0 13 0;
#X connect 9 0 3 0;
#X connect 10 0 11 0;
#X connect 11 0 12 0;
#X connect 12 0 15 0;
#X connect 12 1 13 1;
#X connect 13 0 14 0;
#X connect 14 0 13 1;
#X connect 14 0 27 0;
#X connect 15 0 8 0;
#X connect 16 0 8 0;
#X connect 17 0 18 0;
#X connect 17 0 22 0;
#X connect 18 0 2 0;
#X connect 19 0 20 0;
#X connect 20 0 21 0;
#X connect 21 0 24 0;
#X connect 21 1 22 1;
#X connect 22 0 23 0;
#X connect 23 0 22 1;
#X connect 23 0 26 0;
#X connect 24 0 17 0;
#X connect 25 0 17 0;
#X connect 26 0 25 0;
#X connect 27 0 16 0;
#X connect 28 0 32 0;
#X connect 29 0 30 0;
#X connect 30 0 23 0;
#X connect 30 0 14 0;
#X connect 31 0 32 0;
#X connect 32 0 29 0;
#X coords 0 -1 1 1 30 30 1 10 50;
#X restore 143 32 pd;
#X obj 143 12 loadbang;
#X msg 143 65 set source 2 \$1 \$2 0;
#N canvas 963 550 951 489 (subpatch) 0;
#X obj 11 51 tgl 28 0 empty empty empty 0 -9 0 10 #fcfcfc #000000 #000000 0 1;
#X obj 11 24 inlet;
#X obj 339 280 nbx 5 16 -1e+37 1e+37 0 0 empty empty empty 0 -9 0 10 #fcfcfc #000000 #000000 0 256;
#X obj 98 278 nbx 5 16 -1e+37 1e+37 0 0 empty empty empty 0 -9 0 10 #fcfcfc #000000 #000000 0 256;
#X obj 98 330 * 0.01;
#X obj 274 357 * 0.01;
#X obj 98 374 pack f f;
#X obj 98 397 outlet;
#X obj 98 147 line, f 8;
#X obj 98 207 spigot;
#X obj 98 23 sel 1;
#X obj 98 46 expr random(255 \, 500);
#X obj 98 100 t f f, f 24;
#X obj 179 177 sel, f 7;
#X obj 179 200 expr random(0 \, 500);
#X msg 98 122 0 \, \$1 15000;
#X msg 177 242 \$1 15000;
#X obj 339 146 line, f 8;
#X obj 339 206 spigot;
#X obj 339 22 sel 1;
#X obj 339 45 expr random(255 \, 500);
#X obj 339 99 t f f, f 24;
#X obj 420 176 sel, f 7;
#X obj 420 199 expr random(0 \, 500);
#X msg 339 121 0 \, \$1 15000;
#X msg 420 263 \$1 15000;
#X obj 420 233 + 1;
#X obj 179 223 + 1;
#X obj 339 301 change;
#X obj 339 347 line;
#X obj 339 370 sel 100;
#X obj 140 302 change;
#X msg 339 324 0 \, 100 500;
#X connect 0 0 9 1;
#X connect 0 0 10 0;
#X connect 0 0 19 0;
#X connect 0 0 18 1;
#X connect 1 0 0 0;
#X connect 2 0 5 0;
#X connect 2 0 28 0;
#X connect 3 0 4 0;
#X connect 3 0 31 0;
#X connect 4 0 6 0;
#X connect 5 0 6 1;
#X connect 6 0 7 0;
#X connect 8 0 9 0;
#X connect 8 0 13 0;
#X connect 9 0 3 0;
#X connect 10 0 11 0;
#X connect 11 0 12 0;
#X connect 12 0 15 0;
#X connect 12 1 13 1;
#X connect 13 0 14 0;
#X connect 14 0 13 1;
#X connect 14 0 27 0;
#X connect 15 0 8 0;
#X connect 16 0 8 0;
#X connect 17 0 18 0;
#X connect 17 0 22 0;
#X connect 18 0 2 0;
#X connect 19 0 20 0;
#X connect 20 0 21 0;
#X connect 21 0 24 0;
#X connect 21 1 22 1;
#X connect 22 0 23 0;
#X connect 23 0 22 1;
#X connect 23 0 26 0;
#X connect 24 0 17 0;
#X connect 25 0 17 0;
#X connect 26 0 25 0;
#X connect 27 0 16 0;
#X connect 28 0 32 0;
#X connect 29 0 30 0;
#X connect 30 0 23 0;
#X connect 30 0 14 0;
#X connect 31 0 32 0;
#X connect 32 0 29 0;
#X coords 0 -1 1 1 30 30 1 10 50;
#X restore 11 31 pd;
#N canvas 963 550 951 489 (subpatch) 0;
#X obj 11 51 tgl 28 0 empty empty empty 0 -9 0 10 #fcfcfc #000000 #000000 0 1;
#X obj 11 24 inlet;
#X obj 339 280 nbx 5 16 -1e+37 1e+37 0 0 empty empty empty 0 -9 0 10 #fcfcfc #000000 #000000 0 256;
#X obj 98 278 nbx 5 16 -1e+37 1e+37 0 0 empty empty empty 0 -9 0 10 #fcfcfc #000000 #000000 0 256;
#X obj 98 330 * 0.01;
#X obj 274 357 * 0.01;
#X obj 98 374 pack f f;
#X obj 98 397 outlet;
#X obj 98 147 line, f 8;
#X obj 98 207 spigot;
#X obj 98 23 sel 1;
#X obj 98 46 expr random(255 \, 500);
#X obj 98 100 t f f, f 24;
#X obj 179 177 sel, f 7;
#X obj 179 200 expr random(0 \, 500);
#X msg 98 122 0 \, \$1 15000;
#X msg 177 242 \$1 15000;
#X obj 339 146 line, f 8;
#X obj 339 206 spigot;
#X obj 339 22 sel 1;
#X obj 339 45 expr random(255 \, 500);
#X obj 339 99 t f f, f 24;
#X obj 420 176 sel, f 7;
#X obj 420 199 expr random(0 \, 500);
#X msg 339 121 0 \, \$1 15000;
#X msg 420 263 \$1 15000;
#X obj 420 233 + 1;
#X obj 179 223 + 1;
#X obj 339 301 change;
#X obj 339 347 line;
#X obj 339 370 sel 100;
#X obj 140 302 change;
#X msg 339 324 0 \, 100 500;
#X connect 0 0 9 1;
#X connect 0 0 10 0;
#X connect 0 0 19 0;
#X connect 0 0 18 1;
#X connect 1 0 0 0;
#X connect 2 0 5 0;
#X connect 2 0 28 0;
#X connect 3 0 4 0;
#X connect 3 0 31 0;
#X connect 4 0 6 0;
#X connect 5 0 6 1;
#X connect 6 0 7 0;
#X connect 8 0 9 0;
#X connect 8 0 13 0;
#X connect 9 0 3 0;
#X connect 10 0 11 0;
#X connect 11 0 12 0;
#X connect 12 0 15 0;
#X connect 12 1 13 1;
#X connect 13 0 14 0;
#X connect 14 0 13 1;
#X connect 14 0 27 0;
#X connect 15 0 8 0;
#X connect 16 0 8 0;
#X connect 17 0 18 0;
#X connect 17 0 22 0;
#X connect 18 0 2 0;
#X connect 19 0 20 0;
#X connect 20 0 21 0;
#X connect 21 0 24 0;
#X connect 21 1 22 1;
#X connect 22 0 23 0;
#X connect 23 0 22 1;
#X connect 23 0 26 0;
#X connect 24 0 17 0;
#X connect 25 0 17 0;
#X connect 26 0 25 0;
#X connect 27 0 16 0;
#X connect 28 0 32 0;
#X connect 29 0 30 0;
#X connect 30 0 23 0;
#X connect 30 0 14 0;
#X connect 31 0 32 0;
#X connect 32 0 29 0;
#X coords 0 -1 1 1 30 30 1 10 50;
#X restore 273 32 pd;
#X obj 273 12 loadbang;
#X msg 273 65 set source 3 \$1 \$2 0;
#X connect 1 0 6 0;
#X connect 2 0 0 0;
#X connect 3 0 5 0;
#X connect 4 0 3 0;
#X connect 5 0 0 0;
#X connect 6 0 2 0;
#X connect 7 0 9 0;
#X connect 8 0 7 0;
#X connect 9 0 0 0;
#X restore 2 51 pd random-walk;
#X msg 17 124 reload;
#X obj 2 102 spigot;
#X obj 35 80 tgl 18 0 empty empty empty 0 -9 0 10 #fcfcfc #000000 #000000 0 1;
#X obj 102 82 s enc;
#X obj 2 454 s enc;
#N canvas 963 550 951 489 /*patcherized*/ 1;
#X obj 20 20 inlet~;
#X obj 257 144 block~ 128;
#X obj 31 108 outlet~;
#X obj 31 86 vstplugin~ -m -e sparta_ambiDEC.vst3 -i 4 4;
#X obj 30 60 vstplugin~ -m -e sparta_ambiRoomSim.vst3 -i 4;
#X connect 0 0 4 0;
#X connect 3 0 2 0;
#X connect 4 0 3 0;
#X restore 85 418 pd /*patcherized*/;
#X obj 85 440 dac~ 1;
#X connect 3 0 24 0;
#X connect 4 0 3 0;
#X connect 7 0 11 0;
#X connect 8 0 13 0;
#X connect 8 0 14 0;
#X connect 8 0 15 0;
#X connect 8 0 12 0;
#X connect 9 0 10 0;
#X connect 11 0 5 0;
#X connect 12 0 6 0;
#X connect 13 0 6 0;
#X connect 14 0 6 0;
#X connect 15 0 6 0;
#X connect 17 0 25 0;
#X connect 19 0 21 0;
#X connect 20 0 3 0;
#X connect 21 0 3 0;
#X connect 22 0 21 1;
#X connect 25 0 26 0;
